<svg xmlns="http://www.w3.org/2000/svg" viewBox="0 0 960 620" role="img" aria-labelledby="title desc">
  <title id="title">Albert Saputra applied software workflow</title>
  <desc id="desc">A modern workflow illustration connecting web interfaces, databases, data processing, and computer vision outputs.</desc>
  <defs>
    <linearGradient id="bg" x1="0" x2="1" y1="0" y2="1">
      <stop offset="0" stop-color="#ffffff"/>
      <stop offset=".48" stop-color="#eff6ff"/>
      <stop offset="1" stop-color="#f5f3ff"/>
    </linearGradient>
    <linearGradient id="screen" x1="0" x2="1" y1="0" y2="1">
      <stop offset="0" stop-color="#0f172a"/>
      <stop offset="1" stop-color="#1d4ed8"/>
    </linearGradient>
    <filter id="shadow" x="-20%" y="-20%" width="140%" height="140%">
      <feDropShadow dx="0" dy="24" stdDeviation="26" flood-color="#1d4ed8" flood-opacity=".14"/>
    </filter>
  </defs>
  <rect width="960" height="620" rx="44" fill="url(#bg)"/>
  <rect x="72" y="76" width="816" height="468" rx="34" fill="#ffffff" fill-opacity=".78" filter="url(#shadow)"/>
  <rect x="142" y="124" width="438" height="304" rx="28" fill="url(#screen)"/>
  <rect x="178" y="162" width="166" height="18" rx="9" fill="#bfdbfe"/>
  <rect x="178" y="202" width="330" height="12" rx="6" fill="#ffffff" fill-opacity=".26"/>
  <rect x="178" y="230" width="276" height="12" rx="6" fill="#ffffff" fill-opacity=".18"/>
  <rect x="178" y="280" width="120" height="92" rx="20" fill="#38bdf8" fill-opacity=".2" stroke="#67e8f9" stroke-opacity=".58"/>
  <rect x="322" y="280" width="190" height="92" rx="20" fill="#ffffff" fill-opacity=".1" stroke="#93c5fd" stroke-opacity=".48"/>
  <path d="M344 338h26l18-26 29 44 22-33h44" fill="none" stroke="#bfdbfe" stroke-width="7" stroke-linecap="round" stroke-linejoin="round"/>
  <path d="M204 342l22-34 18 26 27-50" fill="none" stroke="#67e8f9" stroke-width="7" stroke-linecap="round" stroke-linejoin="round"/>
  <rect x="246" y="446" width="230" height="30" rx="15" fill="#c7d2fe"/>
  <rect x="214" y="492" width="294" height="24" rx="12" fill="#0f172a" fill-opacity=".12"/>
  <g stroke="#2563eb" stroke-width="4" stroke-linecap="round" stroke-opacity=".32">
    <path d="M580 200h64"/>
    <path d="M580 310h64"/>
    <path d="M580 420h64"/>
  </g>
  <rect x="646" y="150" width="172" height="84" rx="22" fill="#eff6ff" stroke="#bfdbfe"/>
  <text x="674" y="187" fill="#0f172a" font-family="Inter, Arial, sans-serif" font-size="19" font-weight="800">Frontend</text>
  <rect x="674" y="202" width="94" height="10" rx="5" fill="#60a5fa"/>
  <rect x="646" y="260" width="172" height="84" rx="22" fill="#f8fafc" stroke="#dbeafe"/>
  <text x="674" y="297" fill="#0f172a" font-family="Inter, Arial, sans-serif" font-size="19" font-weight="800">Database</text>
  <rect x="674" y="312" width="112" height="10" rx="5" fill="#2563eb"/>
  <rect x="646" y="370" width="172" height="84" rx="22" fill="#eef2ff" stroke="#c7d2fe"/>
  <text x="674" y="407" fill="#0f172a" font-family="Inter, Arial, sans-serif" font-size="19" font-weight="800">AI / Data</text>
  <rect x="674" y="422" width="88" height="10" rx="5" fill="#8b5cf6"/>
</svg>
