<svg xmlns="http://www.w3.org/2000/svg" viewBox="0 0 960 600" role="img" aria-labelledby="title desc">
  <title id="title">Fuzzy C-Means image segmentation</title>
  <desc id="desc">A visual image-processing workspace with segmented regions, cluster centers, and analysis controls.</desc>
  <defs>
    <linearGradient id="bg" x1="0" x2="1" y1="0" y2="1">
      <stop offset="0" stop-color="#f5f3ff"/>
      <stop offset=".46" stop-color="#eff6ff"/>
      <stop offset="1" stop-color="#ecfeff"/>
    </linearGradient>
    <filter id="shadow" x="-20%" y="-20%" width="140%" height="140%">
      <feDropShadow dx="0" dy="24" stdDeviation="24" flood-color="#4338ca" flood-opacity=".14"/>
    </filter>
    <clipPath id="clip">
      <rect x="128" y="130" width="430" height="342" rx="28"/>
    </clipPath>
  </defs>
  <rect width="960" height="600" rx="44" fill="url(#bg)"/>
  <rect x="82" y="76" width="796" height="448" rx="34" fill="#ffffff" fill-opacity=".86" filter="url(#shadow)"/>
  <rect x="128" y="130" width="430" height="342" rx="28" fill="#f8fafc"/>
  <g clip-path="url(#clip)">
    <rect x="128" y="130" width="430" height="342" fill="#dbeafe"/>
    <path d="M110 246c105-81 218-54 263 4 45 59 103 54 214-8v250H110Z" fill="#93c5fd"/>
    <path d="M122 334c90-48 158-32 225 33 77 74 144 45 222-18v146H122Z" fill="#8b5cf6" opacity=".72"/>
    <path d="M144 150c71 70 154 72 225 25 60-40 123-23 200 59v-96H144Z" fill="#22d3ee" opacity=".72"/>
    <path d="M230 224c35-22 85-6 105 31 17 31 7 66-25 80-39 17-94-1-108-39-10-27 3-57 28-72Z" fill="#eef2ff" opacity=".82"/>
    <path d="M410 300c35-21 84-6 104 31 17 31 7 67-25 80-38 17-93-1-108-39-10-27 3-57 29-72Z" fill="#f0f9ff" opacity=".78"/>
  </g>
  <rect x="128" y="130" width="430" height="342" rx="28" fill="none" stroke="#dbeafe"/>
  <g fill="#0f172a">
    <circle cx="256" cy="277" r="9"/>
    <circle cx="457" cy="356" r="9"/>
    <circle cx="358" cy="203" r="9"/>
  </g>
  <g stroke="#0f172a" stroke-width="3" stroke-dasharray="8 10" stroke-opacity=".5">
    <path d="M256 277l102-74"/>
    <path d="M358 203l99 153"/>
    <path d="M256 277l201 79"/>
  </g>
  <rect x="606" y="132" width="226" height="92" rx="22" fill="#f8fafc" stroke="#ddd6fe"/>
  <text x="634" y="169" fill="#0f172a" font-family="Inter, Arial, sans-serif" font-size="20" font-weight="800">Cluster map</text>
  <rect x="634" y="190" width="48" height="12" rx="6" fill="#22d3ee"/>
  <rect x="696" y="190" width="48" height="12" rx="6" fill="#60a5fa"/>
  <rect x="758" y="190" width="48" height="12" rx="6" fill="#8b5cf6"/>
  <rect x="606" y="256" width="226" height="92" rx="22" fill="#eef2ff" stroke="#c7d2fe"/>
  <text x="634" y="293" fill="#1d4ed8" font-family="Inter, Arial, sans-serif" font-size="20" font-weight="800">FCM output</text>
  <path d="M634 321h66l20-22 26 36 22-23h39" fill="none" stroke="#2563eb" stroke-width="6" stroke-linecap="round" stroke-linejoin="round"/>
  <rect x="606" y="380" width="226" height="70" rx="22" fill="#ecfeff" stroke="#a5f3fc"/>
  <text x="634" y="423" fill="#0f172a" font-family="Inter, Arial, sans-serif" font-size="18" font-weight="800">Python processing</text>
</svg>
