<svg xmlns="http://www.w3.org/2000/svg" viewBox="0 0 960 600" role="img" aria-labelledby="title desc">
  <title id="title">Queue Simulation App</title>
  <desc id="desc">A queue simulation dashboard with arrivals, service timeline, waiting metrics, and a single server lane.</desc>
  <defs>
    <linearGradient id="bg" x1="0" x2="1" y1="0" y2="1">
      <stop offset="0" stop-color="#f8fafc"/>
      <stop offset=".52" stop-color="#dbeafe"/>
      <stop offset="1" stop-color="#f5f3ff"/>
    </linearGradient>
    <filter id="shadow" x="-20%" y="-20%" width="140%" height="140%">
      <feDropShadow dx="0" dy="24" stdDeviation="24" flood-color="#1e3a8a" flood-opacity=".14"/>
    </filter>
  </defs>
  <rect width="960" height="600" rx="44" fill="url(#bg)"/>
  <rect x="76" y="76" width="808" height="448" rx="34" fill="#ffffff" fill-opacity=".86" filter="url(#shadow)"/>
  <rect x="126" y="126" width="506" height="196" rx="28" fill="#eff6ff" stroke="#bfdbfe"/>
  <path d="M180 224h364" stroke="#2563eb" stroke-width="8" stroke-linecap="round" stroke-opacity=".26"/>
  <g>
    <rect x="188" y="181" width="66" height="86" rx="18" fill="#ffffff" stroke="#bfdbfe"/>
    <rect x="282" y="181" width="66" height="86" rx="18" fill="#ffffff" stroke="#bfdbfe"/>
    <rect x="376" y="181" width="66" height="86" rx="18" fill="#ffffff" stroke="#bfdbfe"/>
    <rect x="470" y="181" width="66" height="86" rx="18" fill="#ffffff" stroke="#bfdbfe"/>
    <circle cx="221" cy="210" r="16" fill="#60a5fa"/>
    <circle cx="315" cy="210" r="16" fill="#38bdf8"/>
    <circle cx="409" cy="210" r="16" fill="#8b5cf6"/>
    <circle cx="503" cy="210" r="16" fill="#2563eb"/>
    <path d="M202 246h38M296 246h38M390 246h38M484 246h38" stroke="#cbd5e1" stroke-width="6" stroke-linecap="round"/>
  </g>
  <rect x="566" y="166" width="88" height="116" rx="22" fill="#0f172a"/>
  <path d="M594 220h32M610 204v32" stroke="#38bdf8" stroke-width="8" stroke-linecap="round"/>
  <text x="164" y="160" fill="#0f172a" font-family="Inter, Arial, sans-serif" font-size="22" font-weight="800">Single server queue</text>
  <rect x="126" y="358" width="506" height="88" rx="24" fill="#f8fafc" stroke="#dbeafe"/>
  <path d="M164 410c50-45 88-18 126-8s68-30 104-14 50 47 97-1 73-22 103-2" fill="none" stroke="#2563eb" stroke-width="8" stroke-linecap="round" stroke-linejoin="round"/>
  <text x="164" y="392" fill="#64748b" font-family="Inter, Arial, sans-serif" font-size="16" font-weight="700">waiting-time curve</text>
  <rect x="680" y="126" width="156" height="98" rx="22" fill="#eef2ff" stroke="#c7d2fe"/>
  <text x="707" y="164" fill="#1d4ed8" font-family="Inter, Arial, sans-serif" font-size="18" font-weight="800">Utilization</text>
  <text x="707" y="197" fill="#0f172a" font-family="Inter, Arial, sans-serif" font-size="34" font-weight="900">78%</text>
  <rect x="680" y="254" width="156" height="98" rx="22" fill="#ecfeff" stroke="#a5f3fc"/>
  <text x="707" y="292" fill="#0891b2" font-family="Inter, Arial, sans-serif" font-size="18" font-weight="800">Arrivals</text>
  <text x="707" y="325" fill="#0f172a" font-family="Inter, Arial, sans-serif" font-size="34" font-weight="900">42</text>
  <rect x="680" y="382" width="156" height="64" rx="22" fill="#eff6ff" stroke="#bfdbfe"/>
  <text x="707" y="421" fill="#0f172a" font-family="Inter, Arial, sans-serif" font-size="18" font-weight="800">Python model</text>
</svg>
